<svg width="100" height="96" viewBox="0 0 600 96" fill="none" xmlns="http://www.w3.org/2000/svg">
<path d="M88.8318 64.0672C88.9649 63.9341 89.1807 63.9341 89.3138 64.0672L98.5691 73.3224C98.7022 73.4555 98.7022 73.6714 98.5691 73.8045L79.3355 93.038C76.6466 95.7269 72.2871 95.7269 69.5982 93.038C66.9093 90.3492 66.9093 85.9896 69.5982 83.3007L88.8318 64.0672Z" fill="#0AC251" fill-opacity="0.75"/>
<path d="M113.411 58.958L105.834 66.5346C104.641 67.7279 102.706 67.7279 101.513 66.5346L79.3724 44.3942C76.6835 41.7053 76.6835 37.3457 79.3724 34.6569C82.0613 31.968 86.4208 31.968 89.1097 34.6569L113.411 58.958Z" fill="url(#paint0_linear)"/>
<path d="M137.754 83.3007C140.443 85.9896 140.443 90.3492 137.754 93.038C135.065 95.7269 130.706 95.7269 128.017 93.038L108.783 73.8045C108.65 73.6714 108.65 73.4555 108.783 73.3224L118.039 64.0672C118.172 63.9341 118.388 63.9341 118.521 64.0672L137.754 83.3007Z" fill="#0AC251" fill-opacity="0.75"/>
<path d="M143.512 9.386L169.365 1.30681C170.001 1.10807 170.477 1.89504 170.006 2.36617L104.579 67.7933C104.081 68.2913 103.274 68.2913 102.776 67.7933L93.9399 58.9577L143.512 9.386Z" fill="#0AC251"/>
<path d="M180.645 94.9965C174.524 94.9965 168.871 93.6364 163.686 90.9161C158.5 88.1959 154.335 84.2855 151.19 79.185C148.129 74.0845 146.599 68.0914 146.599 61.2058C146.599 54.3201 148.129 48.3271 151.19 43.2266C154.335 38.1261 158.5 34.2157 163.686 31.4955C168.871 28.7752 174.524 27.4151 180.645 27.4151C185.15 27.4151 189.018 28.0101 192.248 29.2003C195.564 30.3054 198.624 31.7505 201.429 33.5357C203.129 34.6408 203.98 36.1284 203.98 37.9986C203.98 39.2737 203.469 40.4638 202.449 41.5689C201.514 42.589 200.409 43.0991 199.134 43.0991C198.199 43.0991 197.264 42.8441 196.329 42.334C193.524 40.8889 191.101 39.8688 189.061 39.2737C187.105 38.5936 184.64 38.2536 181.665 38.2536C174.354 38.2536 168.616 40.3788 164.451 44.6292C160.285 48.7946 158.203 54.3201 158.203 61.2058C158.203 68.0914 160.285 73.6595 164.451 77.9099C168.616 82.0753 174.354 84.158 181.665 84.158C184.64 84.158 187.105 83.8604 189.061 83.2654C191.101 82.5853 193.524 81.5227 196.329 80.0776C197.264 79.5675 198.199 79.3125 199.134 79.3125C200.409 79.3125 201.514 79.8651 202.449 80.9702C203.469 81.9903 203.98 83.1379 203.98 84.413C203.98 86.2832 203.129 87.7708 201.429 88.8759C198.624 90.6611 195.564 92.1487 192.248 93.3388C189.018 94.4439 185.15 94.9965 180.645 94.9965Z" fill="#F9FAFB"/>
<path d="M244.566 94.9965C234.195 94.9965 226.077 92.0637 220.211 86.1982C214.431 80.2476 211.541 71.9168 211.541 61.2058C211.541 55.1702 212.646 49.6022 214.856 44.5017C217.066 39.4012 220.466 35.2783 225.057 32.133C229.647 28.9877 235.3 27.4151 242.016 27.4151C248.307 27.4151 253.747 28.9027 258.338 31.878C262.928 34.7683 266.413 38.6787 268.794 43.6091C271.174 48.4546 272.364 53.7676 272.364 59.5481C272.364 61.1633 271.811 62.5234 270.706 63.6285C269.686 64.7336 268.283 65.2862 266.498 65.2862H223.272C223.952 71.2367 226.162 75.8697 229.902 79.185C233.643 82.5003 238.871 84.158 245.586 84.158C249.157 84.158 252.259 83.8179 254.895 83.1379C257.615 82.4578 260.25 81.4802 262.8 80.2051C263.481 79.8651 264.246 79.695 265.096 79.695C266.456 79.695 267.646 80.1626 268.666 81.0977C269.686 82.0328 270.196 83.2229 270.196 84.668C270.196 86.5382 269.091 88.1108 266.881 89.386C263.566 91.2561 260.293 92.6588 257.062 93.5939C253.832 94.529 249.667 94.9965 244.566 94.9965ZM260.888 55.8503C260.633 51.6849 259.528 48.1996 257.572 45.3943C255.702 42.589 253.365 40.5488 250.559 39.2737C247.754 37.9136 244.906 37.2335 242.016 37.2335C239.126 37.2335 236.278 37.9136 233.473 39.2737C230.667 40.5488 228.33 42.589 226.46 45.3943C224.589 48.1996 223.527 51.6849 223.272 55.8503H260.888Z" fill="#F9FAFB"/>
<path d="M290.905 94.3589C289.29 94.3589 287.93 93.8064 286.825 92.7013C285.719 91.5962 285.167 90.236 285.167 88.6209V5.86555C285.167 4.2504 285.719 2.89027 286.825 1.78517C287.93 0.595054 289.29 0 290.905 0C292.605 0 294.008 0.552551 295.113 1.65765C296.218 2.76276 296.77 4.16539 296.77 5.86555V88.6209C296.77 90.236 296.175 91.5962 294.985 92.7013C293.88 93.8064 292.52 94.3589 290.905 94.3589Z" fill="#F9FAFB"/>
<path d="M343.443 94.9965C333.072 94.9965 324.954 92.0637 319.088 86.1982C313.308 80.2476 310.417 71.9168 310.417 61.2058C310.417 55.1702 311.522 49.6022 313.733 44.5017C315.943 39.4012 319.343 35.2783 323.934 32.133C328.524 28.9877 334.177 27.4151 340.893 27.4151C347.183 27.4151 352.624 28.9027 357.214 31.878C361.805 34.7683 365.29 38.6787 367.67 43.6091C370.05 48.4546 371.24 53.7676 371.24 59.5481C371.24 61.1633 370.688 62.5234 369.583 63.6285C368.563 64.7336 367.16 65.2862 365.375 65.2862H322.148C322.828 71.2367 325.039 75.8697 328.779 79.185C332.519 82.5003 337.747 84.158 344.463 84.158C348.033 84.158 351.136 83.8179 353.771 83.1379C356.492 82.4578 359.127 81.4802 361.677 80.2051C362.357 79.8651 363.122 79.695 363.972 79.695C365.332 79.695 366.523 80.1626 367.543 81.0977C368.563 82.0328 369.073 83.2229 369.073 84.668C369.073 86.5382 367.968 88.1108 365.757 89.386C362.442 91.2561 359.169 92.6588 355.939 93.5939C352.709 94.529 348.543 94.9965 343.443 94.9965ZM359.764 55.8503C359.509 51.6849 358.404 48.1996 356.449 45.3943C354.579 42.589 352.241 40.5488 349.436 39.2737C346.631 37.9136 343.783 37.2335 340.893 37.2335C338.002 37.2335 335.155 37.9136 332.349 39.2737C329.544 40.5488 327.206 42.589 325.336 45.3943C323.466 48.1996 322.403 51.6849 322.148 55.8503H359.764Z" fill="#F9FAFB"/>
<path d="M389.782 94.3589C388.166 94.3589 386.806 93.8064 385.701 92.7013C384.596 91.5962 384.043 90.236 384.043 88.6209V33.9182C384.043 32.3031 384.596 30.9429 385.701 29.8378C386.806 28.6477 388.166 28.0526 389.782 28.0526C391.397 28.0526 392.757 28.6477 393.862 29.8378C395.052 30.9429 395.647 32.3031 395.647 33.9182V39.4012C401.598 31.4105 408.271 27.4151 415.667 27.4151H416.304C417.919 27.4151 419.237 27.9676 420.257 29.0727C421.362 30.1779 421.915 31.538 421.915 33.1531C421.915 34.7683 421.362 36.0859 420.257 37.106C419.152 38.1261 417.749 38.6362 416.049 38.6362H415.411C411.331 38.6362 407.591 39.6562 404.19 41.6964C400.79 43.6516 397.942 46.3719 395.647 49.8572V88.6209C395.647 90.236 395.052 91.5962 393.862 92.7013C392.757 93.8064 391.397 94.3589 389.782 94.3589Z" fill="#F9FAFB"/>
<path d="M446.883 94.9965C443.143 94.9965 439.657 94.2314 436.427 92.7013C433.282 91.1711 430.774 88.9609 428.904 86.0706C427.034 83.0954 426.099 79.695 426.099 75.8697C426.099 69.5791 428.564 64.5636 433.494 60.8233C438.51 57.0829 445.82 55.2127 455.426 55.2127H470.855V54.1926C470.855 48.5821 469.453 44.5442 466.647 42.079C463.927 39.6138 459.634 38.3811 453.769 38.3811C450.538 38.3811 447.648 38.6362 445.098 39.1462C442.633 39.6563 439.87 40.4213 436.81 41.4414C436.13 41.6114 435.577 41.6964 435.152 41.6964C433.877 41.6964 432.772 41.2289 431.837 40.2938C430.902 39.3587 430.434 38.2111 430.434 36.851C430.434 34.5558 431.539 32.9406 433.749 32.0055C440.975 28.9452 448.328 27.4151 455.809 27.4151C461.674 27.4151 466.605 28.6052 470.6 30.9854C474.681 33.3657 477.656 36.4685 479.526 40.2938C481.481 44.0342 482.459 48.1146 482.459 52.535V88.6209C482.459 90.236 481.864 91.5962 480.674 92.7013C479.569 93.8064 478.208 94.3589 476.593 94.3589C474.978 94.3589 473.618 93.8064 472.513 92.7013C471.408 91.5962 470.855 90.236 470.855 88.6209V85.3056C464.565 91.7662 456.574 94.9965 446.883 94.9965ZM451.218 84.7955C454.959 84.7955 458.572 83.9029 462.057 82.1178C465.542 80.2476 468.475 77.9524 470.855 75.2321V64.5211H456.956C444.12 64.5211 437.702 67.8789 437.702 74.5946C437.702 77.6549 438.722 80.1201 440.762 81.9903C442.888 83.8604 446.373 84.7955 451.218 84.7955Z" fill="#F9FAFB"/>
<path d="M520.305 94.9965C507.894 94.9965 501.688 89.386 501.688 78.1649V38.6362H492.635C491.955 38.6362 491.36 38.4236 490.85 37.9986C490.425 37.4886 490.212 36.8935 490.212 36.2134C490.212 35.3633 490.595 34.6408 491.36 34.0457L508.702 17.0866C509.467 16.3215 510.189 15.939 510.869 15.939C511.549 15.939 512.102 16.194 512.527 16.7041C513.037 17.2141 513.292 17.8092 513.292 18.4893V28.6902H527.701C529.146 28.6902 530.336 29.1578 531.271 30.0928C532.206 31.0279 532.674 32.2181 532.674 33.6632C532.674 35.0233 532.206 36.2134 531.271 37.2335C530.336 38.1686 529.146 38.6362 527.701 38.6362H513.292V77.1448C513.292 80.4601 514.057 82.5853 515.587 83.5204C517.202 84.3705 519.2 84.7955 521.58 84.7955C523.28 84.7955 524.981 84.5405 526.681 84.0305C527.021 83.9454 527.361 83.8604 527.701 83.7754C528.126 83.6904 528.636 83.6479 529.231 83.6479C530.421 83.6479 531.484 84.1155 532.419 85.0506C533.354 85.9006 533.821 86.9632 533.821 88.2383C533.821 90.1935 532.844 91.6812 530.889 92.7013C527.573 94.2314 524.045 94.9965 520.305 94.9965Z" fill="#F9FAFB"/>
<path d="M572.202 94.9965C561.832 94.9965 553.713 92.0637 547.848 86.1982C542.067 80.2476 539.177 71.9168 539.177 61.2058C539.177 55.1702 540.282 49.6022 542.492 44.5017C544.702 39.4012 548.103 35.2783 552.693 32.133C557.284 28.9877 562.937 27.4151 569.652 27.4151C575.943 27.4151 581.383 28.9027 585.974 31.878C590.564 34.7683 594.05 38.6787 596.43 43.6091C598.81 48.4546 600 53.7676 600 59.5481C600 61.1633 599.448 62.5234 598.342 63.6285C597.322 64.7336 595.92 65.2862 594.135 65.2862H550.908C551.588 71.2367 553.798 75.8697 557.539 79.185C561.279 82.5003 566.507 84.158 573.223 84.158C576.793 84.158 579.896 83.8179 582.531 83.1379C585.251 82.4578 587.886 81.4802 590.437 80.2051C591.117 79.8651 591.882 79.695 592.732 79.695C594.092 79.695 595.282 80.1626 596.302 81.0977C597.322 82.0328 597.832 83.2229 597.832 84.668C597.832 86.5382 596.727 88.1108 594.517 89.386C591.202 91.2561 587.929 92.6588 584.699 93.5939C581.468 94.529 577.303 94.9965 572.202 94.9965ZM588.524 55.8503C588.269 51.6849 587.164 48.1996 585.209 45.3943C583.339 42.589 581.001 40.5488 578.196 39.2737C575.39 37.9136 572.543 37.2335 569.652 37.2335C566.762 37.2335 563.914 37.9136 561.109 39.2737C558.304 40.5488 555.966 42.589 554.096 45.3943C552.226 48.1996 551.163 51.6849 550.908 55.8503H588.524Z" fill="#F9FAFB"/>
<path d="M20.7845 94.9965C17.0441 94.9965 13.5588 94.2314 10.3285 92.7013C7.18318 91.1711 4.67545 88.9609 2.80527 86.0707C0.935094 83.0954 0 79.695 0 75.8697C0 69.5791 2.46524 64.5636 7.3957 60.8233C12.4112 57.0829 19.7219 55.2127 29.3278 55.2127H44.7567V54.1926C44.7567 48.5821 43.3541 44.5442 40.5488 42.079C37.8286 39.6138 33.5357 38.3811 27.6701 38.3811C24.4398 38.3811 21.5495 38.6362 18.9993 39.1462C16.5341 39.6563 13.7713 40.4213 10.711 41.4414C10.031 41.6115 9.4784 41.6965 9.05336 41.6965C7.77823 41.6965 6.67313 41.2289 5.73804 40.2938C4.80295 39.3587 4.33541 38.2111 4.33541 36.851C4.33541 34.5558 5.44052 32.9406 7.65072 32.0055C14.8764 28.9453 22.2296 27.4151 29.7103 27.4151C35.5759 27.4151 40.5063 28.6052 44.5017 30.9854C48.5821 33.3657 51.5574 36.4685 53.4276 40.2938C55.3827 44.0342 56.3603 48.1146 56.3603 52.535V88.6209C56.3603 90.236 55.7653 91.5962 54.5752 92.7013C53.4701 93.8064 52.1099 94.3589 50.4948 94.3589C48.8796 94.3589 47.5195 93.8064 46.4144 92.7013C45.3093 91.5962 44.7567 90.236 44.7567 88.6209V85.3056C38.4661 91.7662 30.4754 94.9965 20.7845 94.9965ZM25.1199 84.7955C28.8602 84.7955 32.4731 83.903 35.9584 82.1178C39.4437 80.2476 42.3765 77.9524 44.7567 75.2321V64.5211H30.8579C18.0217 64.5211 11.6036 67.8789 11.6036 74.5946C11.6036 77.6549 12.6237 80.1201 14.6639 81.9903C16.7891 83.8604 20.2744 84.7955 25.1199 84.7955Z" fill="#F9FAFB"/>
<defs>
<linearGradient id="paint0_linear" x1="108.542" y1="63.8267" x2="79.3723" y2="34.6569" gradientUnits="userSpaceOnUse">
<stop stop-color="#0C9943"/>
<stop offset="1" stop-color="#0AC251"/>
</linearGradient>
</defs>
</svg>
