<svg width="80" height="15" viewBox="0 0 904 148" fill="none" xmlns="http://www.w3.org/2000/svg">
<path d="M131.806 98.4874C132.014 98.2786 132.353 98.2786 132.562 98.4874L147.078 113.004C147.287 113.213 147.287 113.551 147.078 113.76L116.911 143.928C112.693 148.145 105.856 148.145 101.638 143.928C97.4207 139.71 97.4207 132.872 101.638 128.655L131.806 98.4874Z" fill="#0AC251" fill-opacity="0.75"/>
<path d="M170.355 90.4746L158.498 102.332C156.612 104.218 153.553 104.218 151.667 102.332L116.607 67.272C112.39 63.0546 112.39 56.2167 116.607 51.9993C120.825 47.7818 127.663 47.7818 131.88 51.9993L170.355 90.4746Z" fill="url(#paint0_linear)"/>
<path d="M208.539 128.655C212.757 132.872 212.757 139.71 208.539 143.927C204.322 148.145 197.484 148.145 193.267 143.927L163.099 113.76C162.89 113.551 162.89 113.213 163.099 113.004L177.616 98.4872C177.825 98.2784 178.163 98.2784 178.372 98.4872L208.539 128.655Z" fill="#0AC251" fill-opacity="0.75"/>
<path d="M217.57 12.7215L258.12 0.0494669C259.118 -0.262241 259.864 0.972103 259.125 1.71105L156.504 104.332C155.723 105.113 154.457 105.113 153.676 104.332L139.817 90.4737L217.57 12.7215Z" fill="#0AC251"/>
<path d="M43.29 48.5145C55.9 48.5145 65.26 51.6995 71.37 58.0695C77.61 64.4395 80.73 74.1245 80.73 87.1245V137.629C80.73 140.619 79.885 142.959 78.195 144.649C76.505 146.209 74.165 146.989 71.175 146.989C68.315 146.989 66.04 146.144 64.35 144.454C62.66 142.764 61.815 140.489 61.815 137.629V130.414C59.345 135.874 55.64 140.099 50.7 143.089C45.89 145.949 40.235 147.379 33.735 147.379C27.495 147.379 21.775 146.144 16.575 143.674C11.375 141.074 7.28 137.499 4.29 132.949C1.43 128.399 0 123.329 0 117.739C0 110.849 1.755 105.454 5.265 101.554C8.905 97.5245 14.82 94.6645 23.01 92.9745C31.33 91.2845 42.705 90.4395 57.135 90.4395H61.62V84.7845C61.62 77.5045 60.125 72.2395 57.135 68.9895C54.145 65.7395 49.335 64.1145 42.705 64.1145C38.155 64.1145 33.865 64.6995 29.835 65.8695C25.805 67.0395 21.385 68.7295 16.575 70.9395C13.065 72.8895 10.595 73.8645 9.165 73.8645C7.215 73.8645 5.59 73.1495 4.29 71.7195C3.12 70.2895 2.535 68.4695 2.535 66.2595C2.535 64.3095 3.055 62.6195 4.095 61.1895C5.265 59.6295 7.085 58.1345 9.555 56.7045C14.105 54.2345 19.435 52.2845 25.545 50.8545C31.655 49.2945 37.57 48.5145 43.29 48.5145ZM37.245 132.754C44.395 132.754 50.245 130.349 54.795 125.539C59.345 120.599 61.62 114.294 61.62 106.624V101.554H58.11C47.97 101.554 40.17 102.009 34.71 102.919C29.25 103.829 25.35 105.389 23.01 107.599C20.67 109.679 19.5 112.734 19.5 116.764C19.5 121.444 21.19 125.279 24.57 128.269C27.95 131.259 32.175 132.754 37.245 132.754Z" fill="#334352"/>
<path d="M270.674 147.379C261.444 147.379 253.319 145.364 246.299 141.334C239.409 137.304 234.014 131.584 230.114 124.174C226.344 116.764 224.459 108.184 224.459 98.4345C224.459 88.5545 226.409 79.8445 230.309 72.3045C234.339 64.7645 239.929 58.9145 247.079 54.7545C254.229 50.5945 262.419 48.5145 271.649 48.5145C276.589 48.5145 281.529 49.2295 286.469 50.6595C291.539 52.0895 296.024 54.0395 299.924 56.5095C304.084 59.3695 306.164 62.6845 306.164 66.4545C306.164 68.6645 305.579 70.5495 304.409 72.1095C303.239 73.5395 301.744 74.2545 299.924 74.2545C298.754 74.2545 297.584 73.9945 296.414 73.4745C295.244 72.8245 293.749 71.9145 291.929 70.7445C288.679 68.6645 285.624 67.1045 282.764 66.0645C280.034 64.8945 276.719 64.3095 272.819 64.3095C263.979 64.3095 257.089 67.2994 252.149 73.2794C247.339 79.2594 244.934 87.5795 244.934 98.2395C244.934 108.899 247.339 117.154 252.149 123.004C256.959 128.724 263.784 131.584 272.624 131.584C276.524 131.584 279.969 130.999 282.959 129.829C285.949 128.659 289.004 127.099 292.124 125.149C293.554 124.239 294.984 123.459 296.414 122.809C297.844 122.159 299.144 121.834 300.314 121.834C302.134 121.834 303.629 122.614 304.799 124.174C305.969 125.604 306.554 127.424 306.554 129.634C306.554 131.454 306.034 133.144 304.994 134.704C304.084 136.134 302.459 137.629 300.119 139.189C296.219 141.789 291.669 143.804 286.469 145.234C281.269 146.664 276.004 147.379 270.674 147.379Z" fill="#334352"/>
<path d="M398.671 122.029C400.491 122.029 401.986 122.744 403.156 124.174C404.326 125.604 404.911 127.424 404.911 129.634C404.911 133.404 402.571 136.589 397.891 139.189C393.341 141.789 388.336 143.804 382.876 145.234C377.546 146.664 372.411 147.379 367.471 147.379C352.391 147.379 340.496 143.024 331.786 134.314C323.076 125.474 318.721 113.449 318.721 98.2395C318.721 88.4895 320.606 79.8445 324.376 72.3045C328.276 64.7645 333.671 58.9145 340.561 54.7545C347.581 50.5945 355.511 48.5145 364.351 48.5145C377.091 48.5145 387.166 52.6095 394.576 60.7995C401.986 68.9895 405.691 80.0395 405.691 93.9495C405.691 99.1495 403.351 101.749 398.671 101.749H338.416C339.716 121.899 349.401 131.974 367.471 131.974C372.281 131.974 376.441 131.324 379.951 130.024C383.461 128.724 387.166 127.034 391.066 124.954C391.456 124.694 392.496 124.174 394.186 123.394C396.006 122.484 397.501 122.029 398.671 122.029ZM364.741 62.9445C357.201 62.9445 351.156 65.3495 346.606 70.1595C342.056 74.9695 339.326 81.7295 338.416 90.4395H388.726C388.336 81.5995 386.061 74.8395 381.901 70.1595C377.871 65.3495 372.151 62.9445 364.741 62.9445Z" fill="#334352"/>
<path d="M437.339 146.989C434.479 146.989 432.074 146.209 430.124 144.649C428.304 143.089 427.394 140.749 427.394 137.629V17.1195C427.394 13.9995 428.304 11.6595 430.124 10.0995C432.074 8.40946 434.479 7.56445 437.339 7.56445C440.199 7.56445 442.539 8.40946 444.359 10.0995C446.179 11.6595 447.089 13.9995 447.089 17.1195V137.629C447.089 140.749 446.179 143.089 444.359 144.649C442.539 146.209 440.199 146.989 437.339 146.989Z" fill="#334352"/>
<path d="M549.111 122.029C550.931 122.029 552.426 122.744 553.596 124.174C554.766 125.604 555.351 127.424 555.351 129.634C555.351 133.404 553.011 136.589 548.331 139.189C543.781 141.789 538.776 143.804 533.316 145.234C527.986 146.664 522.851 147.379 517.911 147.379C502.831 147.379 490.936 143.024 482.226 134.314C473.516 125.474 469.161 113.449 469.161 98.2395C469.161 88.4895 471.046 79.8445 474.816 72.3045C478.716 64.7645 484.111 58.9145 491.001 54.7545C498.021 50.5945 505.951 48.5145 514.791 48.5145C527.531 48.5145 537.606 52.6095 545.016 60.7995C552.426 68.9895 556.131 80.0395 556.131 93.9495C556.131 99.1495 553.791 101.749 549.111 101.749H488.856C490.156 121.899 499.841 131.974 517.911 131.974C522.721 131.974 526.881 131.324 530.391 130.024C533.901 128.724 537.606 127.034 541.506 124.954C541.896 124.694 542.936 124.174 544.626 123.394C546.446 122.484 547.941 122.029 549.111 122.029ZM515.181 62.9445C507.641 62.9445 501.596 65.3495 497.046 70.1595C492.496 74.9695 489.766 81.7295 488.856 90.4395H539.166C538.776 81.5995 536.501 74.8395 532.341 70.1595C528.311 65.3495 522.591 62.9445 515.181 62.9445Z" fill="#334352"/>
<path d="M627.754 48.9045C633.994 48.5145 637.114 51.1795 637.114 56.8995C637.114 59.7595 636.399 61.9045 634.969 63.3345C633.539 64.7645 631.069 65.6095 627.559 65.8695L621.709 66.4545C613.519 67.2345 607.409 70.0945 603.379 75.0345C599.479 79.9745 597.529 85.9545 597.529 92.9745V137.629C597.529 140.749 596.619 143.089 594.799 144.649C592.979 146.209 590.639 146.989 587.779 146.989C584.919 146.989 582.514 146.209 580.564 144.649C578.744 143.089 577.834 140.749 577.834 137.629V58.2645C577.834 55.2745 578.744 52.9995 580.564 51.4395C582.514 49.7495 584.919 48.9045 587.779 48.9045C590.379 48.9045 592.524 49.7495 594.214 51.4395C596.034 52.9995 596.944 55.2095 596.944 58.0695V67.4295C599.544 61.7095 603.314 57.3545 608.254 54.3645C613.194 51.3745 618.784 49.6195 625.024 49.0995L627.754 48.9045Z" fill="#334352"/>
<path d="M688.648 48.5145C701.258 48.5145 710.618 51.6995 716.728 58.0695C722.968 64.4395 726.088 74.1245 726.088 87.1245V137.629C726.088 140.619 725.243 142.959 723.553 144.649C721.863 146.209 719.523 146.989 716.533 146.989C713.673 146.989 711.398 146.144 709.708 144.454C708.018 142.764 707.173 140.489 707.173 137.629V130.414C704.703 135.874 700.998 140.099 696.058 143.089C691.248 145.949 685.593 147.379 679.093 147.379C672.853 147.379 667.133 146.144 661.933 143.674C656.733 141.074 652.638 137.499 649.648 132.949C646.788 128.399 645.358 123.329 645.358 117.739C645.358 110.849 647.113 105.454 650.623 101.554C654.263 97.5245 660.178 94.6645 668.368 92.9745C676.688 91.2845 688.063 90.4395 702.493 90.4395H706.978V84.7845C706.978 77.5045 705.483 72.2395 702.493 68.9895C699.503 65.7395 694.693 64.1145 688.063 64.1145C683.513 64.1145 679.223 64.6995 675.193 65.8695C671.163 67.0395 666.743 68.7295 661.933 70.9395C658.423 72.8895 655.953 73.8645 654.523 73.8645C652.573 73.8645 650.948 73.1495 649.648 71.7195C648.478 70.2895 647.893 68.4695 647.893 66.2595C647.893 64.3095 648.413 62.6195 649.453 61.1895C650.623 59.6295 652.443 58.1345 654.913 56.7045C659.463 54.2345 664.793 52.2845 670.903 50.8545C677.013 49.2945 682.928 48.5145 688.648 48.5145ZM682.603 132.754C689.753 132.754 695.603 130.349 700.153 125.539C704.703 120.599 706.978 114.294 706.978 106.624V101.554H703.468C693.328 101.554 685.528 102.009 680.068 102.919C674.608 103.829 670.708 105.389 668.368 107.599C666.028 109.679 664.858 112.734 664.858 116.764C664.858 121.444 666.548 125.279 669.928 128.269C673.308 131.259 677.533 132.754 682.603 132.754Z" fill="#334352"/>
<path d="M799.634 131.974C802.494 132.234 804.509 133.014 805.679 134.314C806.979 135.484 807.629 137.174 807.629 139.384C807.629 141.984 806.589 143.999 804.509 145.429C802.559 146.729 799.634 147.249 795.734 146.989L790.469 146.599C779.939 145.819 772.074 142.634 766.874 137.044C761.674 131.324 759.074 122.939 759.074 111.889V66.0645H747.374C741.654 66.0645 738.794 63.5295 738.794 58.4595C738.794 56.1195 739.509 54.2995 740.939 52.9995C742.499 51.5695 744.644 50.8545 747.374 50.8545H759.074V30.7695C759.074 27.7795 759.919 25.4395 761.609 23.7495C763.429 22.0595 765.834 21.2145 768.824 21.2145C771.814 21.2145 774.219 22.0595 776.039 23.7495C777.859 25.4395 778.769 27.7795 778.769 30.7695V50.8545H798.074C800.804 50.8545 802.884 51.5695 804.314 52.9995C805.874 54.2995 806.654 56.1195 806.654 58.4595C806.654 60.9295 805.874 62.8145 804.314 64.1145C802.884 65.4145 800.804 66.0645 798.074 66.0645H778.769V113.254C778.769 119.364 780.004 123.849 782.474 126.709C785.074 129.569 788.974 131.194 794.174 131.584L799.634 131.974Z" fill="#334352"/>
<path d="M896.264 122.029C898.084 122.029 899.579 122.744 900.749 124.174C901.919 125.604 902.504 127.424 902.504 129.634C902.504 133.404 900.164 136.589 895.484 139.189C890.934 141.789 885.929 143.804 880.469 145.234C875.139 146.664 870.004 147.379 865.064 147.379C849.984 147.379 838.089 143.024 829.379 134.314C820.669 125.474 816.314 113.449 816.314 98.2395C816.314 88.4895 818.199 79.8445 821.969 72.3045C825.869 64.7645 831.264 58.9145 838.154 54.7545C845.174 50.5945 853.104 48.5145 861.944 48.5145C874.684 48.5145 884.759 52.6095 892.169 60.7995C899.579 68.9895 903.284 80.0395 903.284 93.9495C903.284 99.1495 900.944 101.749 896.264 101.749H836.009C837.309 121.899 846.994 131.974 865.064 131.974C869.874 131.974 874.034 131.324 877.544 130.024C881.054 128.724 884.759 127.034 888.659 124.954C889.049 124.694 890.089 124.174 891.779 123.394C893.599 122.484 895.094 122.029 896.264 122.029ZM862.334 62.9445C854.794 62.9445 848.749 65.3495 844.199 70.1595C839.649 74.9695 836.919 81.7295 836.009 90.4395H886.319C885.929 81.5995 883.654 74.8395 879.494 70.1595C875.464 65.3495 869.744 62.9445 862.334 62.9445Z" fill="#334352"/>
<defs>
<linearGradient id="paint0_linear" x1="162.719" y1="98.111" x2="116.607" y2="51.9993" gradientUnits="userSpaceOnUse">
<stop stop-color="#0C9943"/>
<stop offset="1" stop-color="#0AC251"/>
</linearGradient>
</defs>
</svg>
